# xmcd CD database file
#
# Track frame offsets:
#	150
#	23391
#	38204
#	51639
#	87185
#	104710
#	121794
#	141925
#	157663
#	174765
#	201447
#
# Disc length: 2773 seconds
#
# Revision: 0
# Processed by: cddbd v1.5.2PL0 Copyright (c) Steve Scherf et al.
# Submitted via: CDex 1.70beta2
#
DISCID=8a0ad30b
DTITLE=Fee Stracke - Vertreibung aus dem Paradies - New Tunes
DYEAR=2011
DGENRE=Jazz
TTITLE0=Express ins Glück
TTITLE1=Like a tarantella
TTITLE2=St-Tango
TTITLE3=New Tune
TTITLE4=Der Wurm
TTITLE5=Namedrops
TTITLE6=Unterwasserkarussell
TTITLE7=Ameisenstraße
TTITLE8=Verloren auf dem Fest
TTITLE9=Frühling
TTITLE10=Kind of New
EXTD=YEAR: 2011
EXTT0=
EXTT1=
EXTT2=
EXTT3=
EXTT4=
EXTT5=
EXTT6=
EXTT7=
EXTT8=
EXTT9=
EXTT10=
PLAYORDER=
